<svg id="Layer_1" data-name="Layer 1" xmlns="http://www.w3.org/2000/svg" viewBox="0 0 140.74 247.7"><defs><style>.cls-1{fill:#eab773;}.cls-2,.cls-3,.cls-5,.cls-9{fill:none;}.cls-2,.cls-3,.cls-6,.cls-7,.cls-8{stroke:#231f20;stroke-linecap:round;}.cls-2,.cls-4,.cls-5,.cls-6,.cls-7,.cls-9{stroke-miterlimit:10;}.cls-2,.cls-3,.cls-4,.cls-5,.cls-6,.cls-8,.cls-9{stroke-width:2px;}.cls-3{stroke-linejoin:round;}.cls-4{fill:#ff7900;}.cls-4,.cls-5{stroke:#000;}.cls-8{stroke-linejoin:bevel;}.cls-9{stroke:#ff7900;}</style></defs><title>CorrectStickman</title><path class="cls-1" d="M125.07,83.41a30.64,30.64,0,1,1-59.55,0l.94,2.67c.58,1.68,1.17,3.35,1.75,5C67,83.76,69.39,77.23,74,74.83a9.62,9.62,0,0,1,5-1v-5H111.4v5a9.64,9.64,0,0,1,5,1c4.6,2.4,7,8.93,5.78,16.32l1.76-5,.93-2.67Z" transform="translate(-29.76 -28.99)"/><path d="M111.4,68.78H79.05v5a9.62,9.62,0,0,0-5,1c-4.61,2.4-7,8.93-5.79,16.32-.58-1.68-1.17-3.35-1.75-5l-.94-2.67a30.66,30.66,0,0,1,59.55,0l-.15,0L124,86.12l-1.76,5c1.17-7.39-1.18-13.92-5.78-16.32a9.64,9.64,0,0,0-5-1Z" transform="translate(-29.76 -28.99)"/><path class="cls-2" d="M125.07,83.41A30.66,30.66,0,1,1,95.3,60.07,30.78,30.78,0,0,1,125.07,83.41Z" transform="translate(-29.76 -28.99)"/><polyline class="cls-3" points="49.29 39.79 81.64 39.79 81.79 39.79"/><path class="cls-3" d="M79.05,68.78v5a9.62,9.62,0,0,0-5,1c-4.61,2.4-7,8.93-5.79,16.32-.58-1.68-1.17-3.35-1.75-5l-.94-2.67" transform="translate(-29.76 -28.99)"/><path class="cls-3" d="M111.4,68.78v5a9.64,9.64,0,0,1,5,1c4.6,2.4,7,8.93,5.78,16.32l1.76-5,.93-2.67" transform="translate(-29.76 -28.99)"/><rect class="cls-4" x="45.55" y="102.15" width="39.97" height="85.51"/><line class="cls-5" x1="45.55" y1="188.53" x2="45.55" y2="243.15"/><line class="cls-5" x1="85.52" y1="188.53" x2="85.52" y2="245.7"/><line class="cls-5" x1="84.22" y1="102.15" x2="139.62" y2="102.15"/><line class="cls-5" x1="45.62" y1="102.15" x2="25.5" y2="157.18"/><path class="cls-6" d="M111.4,99.06s0,15.58-15.58,15.58S80.24,99.06,80.24,99.06H111.4Z" transform="translate(-29.76 -28.99)"/><line class="cls-2" x1="57.39" y1="51.15" x2="57.39" y2="60.16"/><line class="cls-2" x1="73.39" y1="51.15" x2="73.39" y2="60.16"/><circle class="cls-7" cx="25.31" cy="161.59" r="6.04"/><circle class="cls-7" cx="134.2" cy="100.24" r="6.04"/><path class="cls-8" d="M75.39,262s.28,3.76.28,7.53c0,7.63.19,2.26-.28,6.13,0,0-17.9.21-17.9-3.56S75.39,262,75.39,262Z" transform="translate(-29.76 -28.99)"/><path class="cls-8" d="M115.17,262s-.29,3.76-.29,7.53c0,7.63-.18,2.26.29,6.13,0,0,17.89.21,17.89-3.56S115.17,262,115.17,262Z" transform="translate(-29.76 -28.99)"/><line class="cls-2" x1="65.54" y1="92.37" x2="65.54" y2="102.15"/><rect class="cls-3" x="45.08" y="48.5" width="17.45" height="14.32"/><rect class="cls-3" x="68.47" y="48.5" width="17.45" height="14.32"/><line class="cls-3" x1="62.54" y1="55.66" x2="68.47" y2="55.66"/><line class="cls-2" x1="128.99" y1="88.24" x2="128.99" y2="101.91"/><line class="cls-2" x1="66.06" y1="1" x2="66.06" y2="25.31"/><line class="cls-2" x1="107.05" y1="55.66" x2="131.36" y2="55.66"/><line class="cls-2" x1="1" y1="55.66" x2="25.31" y2="55.66"/><line class="cls-9" x1="111.9" y1="16.72" x2="94.71" y2="33.91"/><line class="cls-9" x1="22.76" y1="13.89" x2="39.95" y2="31.08"/></svg>