<svg id="Layer_1" data-name="Layer 1" xmlns="http://www.w3.org/2000/svg" viewBox="0 0 140.9 251.65"><defs><style>.cls-1{fill:#eab773;}.cls-2,.cls-3,.cls-5,.cls-7,.cls-8,.cls-9{fill:none;}.cls-2,.cls-3,.cls-6{stroke:#231f20;}.cls-2,.cls-3,.cls-6,.cls-8,.cls-9{stroke-linecap:round;}.cls-2,.cls-4,.cls-5,.cls-9{stroke-miterlimit:10;}.cls-2,.cls-3,.cls-4,.cls-5,.cls-6,.cls-7,.cls-8,.cls-9{stroke-width:2px;}.cls-3,.cls-7,.cls-8{stroke-linejoin:round;}.cls-4{fill:#ff7900;}.cls-4,.cls-5,.cls-7,.cls-8,.cls-9{stroke:#000;}.cls-6{stroke-linejoin:bevel;}.cls-10{font-size:28px;font-family:Helvetica-Bold, Helvetica;font-weight:700;}</style></defs><title>QuestionStickman</title><path class="cls-1" d="M125.07,83.41a30.64,30.64,0,1,1-59.55,0l.94,2.67c.58,1.68,1.17,3.35,1.75,5C67,83.76,69.39,77.23,74,74.83a9.62,9.62,0,0,1,5-1v-5H111.4v5a9.64,9.64,0,0,1,5,1c4.6,2.4,7,8.93,5.78,16.32l1.76-5,.93-2.67Z" transform="translate(-30.1 -25.04)"/><path d="M111.4,68.78H79.05v5a9.62,9.62,0,0,0-5,1c-4.61,2.4-7,8.93-5.79,16.32-.58-1.68-1.17-3.35-1.75-5l-.94-2.67a30.66,30.66,0,0,1,59.55,0l-.15,0L124,86.12l-1.76,5c1.17-7.39-1.18-13.92-5.78-16.32a9.64,9.64,0,0,0-5-1Z" transform="translate(-30.1 -25.04)"/><path class="cls-2" d="M125.07,83.41A30.66,30.66,0,1,1,95.3,60.07,30.78,30.78,0,0,1,125.07,83.41Z" transform="translate(-30.1 -25.04)"/><polyline class="cls-3" points="48.95 43.74 81.3 43.74 81.45 43.74"/><path class="cls-3" d="M79.05,68.78v5a9.62,9.62,0,0,0-5,1c-4.61,2.4-7,8.93-5.79,16.32-.58-1.68-1.17-3.35-1.75-5l-.94-2.67" transform="translate(-30.1 -25.04)"/><path class="cls-3" d="M111.4,68.78v5a9.64,9.64,0,0,1,5,1c4.6,2.4,7,8.93,5.78,16.32l1.76-5,.93-2.67" transform="translate(-30.1 -25.04)"/><rect class="cls-4" x="45.21" y="106.1" width="39.97" height="85.51"/><line class="cls-5" x1="45.21" y1="192.48" x2="45.21" y2="247.1"/><line class="cls-5" x1="85.18" y1="192.48" x2="85.18" y2="249.65"/><line class="cls-2" x1="57.05" y1="55.1" x2="57.05" y2="64.11"/><line class="cls-2" x1="73.05" y1="55.1" x2="73.05" y2="64.11"/><path class="cls-6" d="M75.39,262s.28,3.76.28,7.53c0,7.63.19,2.26-.28,6.13,0,0-17.9.21-17.9-3.56S75.39,262,75.39,262Z" transform="translate(-30.1 -25.04)"/><path class="cls-6" d="M115.17,262s-.29,3.76-.29,7.53c0,7.63-.18,2.26.29,6.13,0,0,17.89.21,17.89-3.56S115.17,262,115.17,262Z" transform="translate(-30.1 -25.04)"/><line class="cls-2" x1="65.2" y1="96.31" x2="65.2" y2="106.1"/><rect class="cls-3" x="44.74" y="52.44" width="17.45" height="14.32"/><rect class="cls-3" x="68.13" y="52.44" width="17.45" height="14.32"/><line class="cls-3" x1="62.2" y1="59.6" x2="68.13" y2="59.6"/><line class="cls-5" x1="84.88" y1="105.96" x2="110.53" y2="129.83"/><line class="cls-7" x1="109.51" y1="130.03" x2="127.82" y2="104.18"/><line class="cls-8" x1="127.82" y1="104.18" x2="139.9" y2="104.31"/><line class="cls-9" x1="45.72" y1="106.29" x2="20.08" y2="130.17"/><line class="cls-8" x1="20.08" y1="130.17" x2="13.08" y2="103.97"/><line class="cls-8" x1="13.08" y1="103.97" x2="1" y2="104.1"/><text class="cls-10" transform="translate(56.58 24.08)">?</text><text class="cls-10" transform="translate(27.28 50.21) rotate(-45)">?</text><text class="cls-10" transform="translate(91.36 37.62) rotate(45)">?</text><line class="cls-3" x1="52.35" y1="84.7" x2="61.39" y2="80.17"/><line class="cls-3" x1="61.39" y1="80.17" x2="69.86" y2="85"/><line class="cls-3" x1="69.88" y1="85" x2="78.05" y2="80.38"/></svg>