<svg id="Layer_1" data-name="Layer 1" xmlns="http://www.w3.org/2000/svg" viewBox="0 0 139.8 246.7"><defs><style>.cls-1{fill:#ff7900;}.cls-1,.cls-2{stroke:#000;}.cls-1,.cls-2,.cls-3,.cls-5,.cls-9{stroke-miterlimit:10;}.cls-1,.cls-2,.cls-4,.cls-5,.cls-8,.cls-9{stroke-width:2px;}.cls-2,.cls-5,.cls-6,.cls-8{fill:none;}.cls-3,.cls-4,.cls-5,.cls-8,.cls-9{stroke:#231f20;stroke-linecap:round;}.cls-4{stroke-linejoin:bevel;}.cls-7{fill:#eab773;}.cls-8{stroke-linejoin:round;}</style></defs><title>StartStickman</title><rect class="cls-1" x="44.55" y="101.15" width="39.97" height="85.51"/><line class="cls-2" x1="44.55" y1="187.53" x2="44.55" y2="242.15"/><line class="cls-2" x1="84.52" y1="187.53" x2="84.52" y2="244.7"/><line class="cls-2" x1="84.22" y1="101.15" x2="139.09" y2="46.28"/><line class="cls-2" x1="44.62" y1="101.15" x2="24.5" y2="156.18"/><path class="cls-3" d="M162.21,83.45s4.68,4.68,0,9.35-9.35,0-9.35,0l4.67-4.67Z" transform="translate(-30.76 -29.99)"/><circle class="cls-3" cx="24.31" cy="160.59" r="6.04"/><path class="cls-4" d="M75.39,262s.28,3.76.28,7.53c0,7.63.19,2.26-.28,6.13,0,0-17.9.21-17.9-3.56S75.39,262,75.39,262Z" transform="translate(-30.76 -29.99)"/><path class="cls-4" d="M115.17,262s-.29,3.76-.29,7.53c0,7.63-.18,2.26.29,6.13,0,0,17.89.21,17.89-3.56S115.17,262,115.17,262Z" transform="translate(-30.76 -29.99)"/><line class="cls-5" x1="64.54" y1="91.37" x2="64.54" y2="101.15"/><line class="cls-6" x1="65.06" x2="65.06" y2="24.31"/><line class="cls-6" x1="106.05" y1="54.66" x2="130.36" y2="54.66"/><line class="cls-6" y1="54.66" x2="24.31" y2="54.66"/><line class="cls-6" x1="110.9" y1="15.72" x2="93.71" y2="32.91"/><line class="cls-6" x1="21.76" y1="12.89" x2="38.95" y2="30.08"/><path class="cls-7" d="M125.07,83.41a30.64,30.64,0,1,1-59.55,0l.94,2.67c.58,1.68,1.17,3.35,1.75,5C67,83.76,69.39,77.23,74,74.83a9.62,9.62,0,0,1,5-1v-5H111.4v5a9.64,9.64,0,0,1,5,1c4.6,2.4,7,8.93,5.78,16.32l1.76-5,.93-2.67Z" transform="translate(-30.76 -29.99)"/><path d="M111.4,68.78H79.05v5a9.62,9.62,0,0,0-5,1c-4.61,2.4-7,8.93-5.79,16.32-.58-1.68-1.17-3.35-1.75-5l-.94-2.67a30.66,30.66,0,0,1,59.55,0l-.15,0L124,86.12l-1.76,5c1.17-7.39-1.18-13.92-5.78-16.32a9.64,9.64,0,0,0-5-1Z" transform="translate(-30.76 -29.99)"/><path class="cls-5" d="M125.07,83.41A30.66,30.66,0,1,1,95.3,60.07,30.78,30.78,0,0,1,125.07,83.41Z" transform="translate(-30.76 -29.99)"/><polyline class="cls-8" points="48.29 38.79 80.64 38.79 80.79 38.79"/><path class="cls-8" d="M79.05,68.78v5a9.62,9.62,0,0,0-5,1c-4.61,2.4-7,8.93-5.79,16.32-.58-1.68-1.17-3.35-1.75-5l-.94-2.67" transform="translate(-30.76 -29.99)"/><path class="cls-8" d="M111.4,68.78v5a9.64,9.64,0,0,1,5,1c4.6,2.4,7,8.93,5.78,16.32l1.76-5,.93-2.67" transform="translate(-30.76 -29.99)"/><path class="cls-9" d="M111.4,99.06s0,15.58-15.58,15.58S80.24,99.06,80.24,99.06H111.4Z" transform="translate(-30.76 -29.99)"/><line class="cls-5" x1="56.39" y1="50.15" x2="56.39" y2="59.16"/><line class="cls-5" x1="72.39" y1="50.15" x2="72.39" y2="59.16"/><rect class="cls-8" x="44.08" y="47.5" width="17.45" height="14.32"/><rect class="cls-8" x="67.47" y="47.5" width="17.45" height="14.32"/><line class="cls-8" x1="61.54" y1="54.66" x2="67.47" y2="54.66"/><path class="cls-7" d="M125.07,83.41a30.64,30.64,0,1,1-59.55,0l.94,2.67c.58,1.68,1.17,3.35,1.75,5C67,83.76,69.39,77.23,74,74.83a9.62,9.62,0,0,1,5-1v-5H111.4v5a9.64,9.64,0,0,1,5,1c4.6,2.4,7,8.93,5.78,16.32l1.76-5,.93-2.67Z" transform="translate(-30.76 -29.99)"/><path d="M111.4,68.78H79.05v5a9.62,9.62,0,0,0-5,1c-4.61,2.4-7,8.93-5.79,16.32-.58-1.68-1.17-3.35-1.75-5l-.94-2.67a30.66,30.66,0,0,1,59.55,0l-.15,0L124,86.12l-1.76,5c1.17-7.39-1.18-13.92-5.78-16.32a9.64,9.64,0,0,0-5-1Z" transform="translate(-30.76 -29.99)"/><path class="cls-5" d="M125.07,83.41A30.66,30.66,0,1,1,95.3,60.07,30.78,30.78,0,0,1,125.07,83.41Z" transform="translate(-30.76 -29.99)"/><polyline class="cls-8" points="48.29 38.79 80.64 38.79 80.79 38.79"/><path class="cls-8" d="M79.05,68.78v5a9.62,9.62,0,0,0-5,1c-4.61,2.4-7,8.93-5.79,16.32-.58-1.68-1.17-3.35-1.75-5l-.94-2.67" transform="translate(-30.76 -29.99)"/><path class="cls-8" d="M111.4,68.78v5a9.64,9.64,0,0,1,5,1c4.6,2.4,7,8.93,5.78,16.32l1.76-5,.93-2.67" transform="translate(-30.76 -29.99)"/><path class="cls-9" d="M111.4,99.06s0,15.58-15.58,15.58S80.24,99.06,80.24,99.06H111.4Z" transform="translate(-30.76 -29.99)"/><line class="cls-5" x1="56.39" y1="50.15" x2="56.39" y2="59.16"/><line class="cls-5" x1="72.39" y1="50.15" x2="72.39" y2="59.16"/><rect class="cls-8" x="44.08" y="47.5" width="17.45" height="14.32"/><rect class="cls-8" x="67.47" y="47.5" width="17.45" height="14.32"/><line class="cls-8" x1="61.54" y1="54.66" x2="67.47" y2="54.66"/></svg>